<?xml version="1.0" encoding="utf-8"?>
<!-- Generator: Adobe Illustrator 19.2.1, SVG Export Plug-In . SVG Version: 6.00 Build 0)  -->
<!DOCTYPE svg PUBLIC "-//W3C//DTD SVG 1.1//EN" "http://www.w3.org/Graphics/SVG/1.1/DTD/svg11.dtd">
<svg version="1.1" id="Layer_1" xmlns="http://www.w3.org/2000/svg" xmlns:xlink="http://www.w3.org/1999/xlink" x="0px" y="0px"
	 width="1336.044px" height="600px" viewBox="0 0 1336.044 600" enable-background="new 0 0 1336.044 600" xml:space="preserve">
<g>
	<path fill="none" stroke="#000000" stroke-width="5" stroke-miterlimit="10" d="M169.809,265.052h-0.824
		c-14.508,0-27.077-9.326-31.277-23.206l-23.628-78.059c-1.632-5.394-2.459-10.989-2.459-16.632
		c0-31.63,25.733-57.364,57.364-57.364h0.824c31.63,0,57.364,25.733,57.364,57.364c0,1.529-0.061,3.055-0.182,4.575
		c-0.511,6.409-6.908,10.654-13.062,8.792l-4.606-1.393c-4.481-1.356-7.438-5.598-7.194-10.273c0.232-4.45-0.447-8.987-2.075-13.368
		c-4.678-12.592-17.012-20.695-30.445-20.695h0c-16.214,0-30.387,11.694-32.66,27.749c-0.67,4.734-0.302,9.499,1.061,14.006
		l23.628,78.058c0.971,3.208,3.992,5.448,7.349,5.448h0.824c1.918,0,3.727-0.731,5.105-1.957c2.252-2.001,5.467-2.514,8.35-1.642
		l7.119,2.154c6.66,2.015,9,8.928,5.386,13.671C189.736,260.197,180.277,265.052,169.809,265.052z"/>
	<g>
		
			<line fill="none" stroke="#000000" stroke-width="5" stroke-miterlimit="10" x1="206.363" y1="158.233" x2="182.735" y2="236.293"/>
		
			<line fill="none" stroke="#000000" stroke-width="5" stroke-miterlimit="10" x1="195.593" y1="240.184" x2="219.221" y2="162.123"/>
	</g>
	<g>
		<path fill="#FFFFFF" stroke="#000000" stroke-width="5" stroke-miterlimit="10" d="M203.143,220.445l-15.87-4.833
			c-1.892-0.576-2.958-2.576-2.382-4.468l9.567-31.418c0.576-1.892,2.576-2.958,4.468-2.382l15.87,4.833
			c1.892,0.576,2.958,2.576,2.382,4.468l-9.567,31.418C207.035,219.954,205.035,221.021,203.143,220.445z"/>
		<g>
			<defs>
				<path id="SVGID_1_" d="M203.143,220.445l-15.87-4.833c-1.892-0.576-2.958-2.576-2.382-4.468l9.567-31.418
					c0.576-1.892,2.576-2.958,4.468-2.382l15.87,4.833c1.892,0.576,2.958,2.576,2.382,4.468l-9.567,31.418
					C207.035,219.954,205.035,221.021,203.143,220.445z"/>
			</defs>
			<clipPath id="SVGID_2_">
				<use xlink:href="#SVGID_1_"  overflow="visible"/>
			</clipPath>
			
				<line clip-path="url(#SVGID_2_)" fill="none" stroke="#000000" stroke-width="5" stroke-miterlimit="10" x1="188.295" y1="150.19" x2="221.145" y2="211.807"/>
			
				<line clip-path="url(#SVGID_2_)" fill="none" stroke="#000000" stroke-width="5" stroke-miterlimit="10" x1="183.669" y1="165.381" x2="216.52" y2="226.997"/>
			
				<line clip-path="url(#SVGID_2_)" fill="none" stroke="#000000" stroke-width="5" stroke-miterlimit="10" x1="179.043" y1="180.572" x2="211.894" y2="242.188"/>
		</g>
	</g>
</g>
<g>
	<path fill="none" stroke="#000000" stroke-width="5" stroke-miterlimit="10" d="M357.141,125.932v66.981
		c0,0.663-0.22,1.307-0.624,1.832l-3.379,4.381c-0.405,0.525-0.624,1.169-0.624,1.832v70.393c0,1.657,1.343,3,3,3h17.589
		c1.657,0,3-1.343,3-3v-70.393c0-0.663-0.22-1.307-0.624-1.832l-3.379-4.381c-0.405-0.525-0.624-1.169-0.624-1.832v-66.981"/>
	<g>
		<defs>
			<path id="SVGID_3_" d="M357.141,193.935l-4.003,5.19c-0.405,0.525-0.624,1.169-0.624,1.832v70.393c0,1.657,1.343,3,3,3h17.589
				c1.657,0,3-1.343,3-3v-70.393c0-0.663-0.22-1.307-0.624-1.832l-4.003-5.19H357.141z"/>
		</defs>
		<clipPath id="SVGID_4_">
			<use xlink:href="#SVGID_3_"  overflow="visible"/>
		</clipPath>
		<path clip-path="url(#SVGID_4_)" fill="none" stroke="#000000" stroke-width="5" stroke-miterlimit="10" d="M340.352,175.329
			l52.75,52.75 M340.352,189.577l52.75,52.75 M340.352,203.826l52.75,52.75 M393.102,270.824l-52.75-52.75 M393.102,285.072
			l-52.75-52.75 M340.352,246.571l52.75,52.75"/>
	</g>
	
		<line fill="none" stroke="#000000" stroke-width="5" stroke-miterlimit="10" x1="357.141" y1="192.912" x2="371.474" y2="192.912"/>
	<g>
		<defs>
			<path id="SVGID_5_" d="M384.602,94.585c0-1.105-0.895-2-2-2h-22.878c-15.695,0-30.372-4.322-42.938-11.816
				c-1.084-0.646-2.481-0.107-2.898,1.083c-3.042,8.686-4.711,18.016-4.711,27.74s1.669,19.055,4.711,27.741
				c0.417,1.191,1.815,1.73,2.898,1.083c12.567-7.494,27.244-11.816,42.938-11.816h22.878c1.105,0,2-0.895,2-2V94.585z"/>
		</defs>
		<clipPath id="SVGID_6_">
			<use xlink:href="#SVGID_5_"  overflow="visible"/>
		</clipPath>
		<path clip-path="url(#SVGID_6_)" fill="#FFFFFF" stroke="#000000" stroke-width="5" stroke-miterlimit="10" d="M323.887,81.853
			c-3.042,8.686-4.711,18.016-4.711,27.74s1.669,19.055,4.711,27.741"/>
		
			<line clip-path="url(#SVGID_6_)" fill="none" stroke="#000000" stroke-width="5" stroke-miterlimit="10" x1="358.141" y1="82.185" x2="394.413" y2="118.457"/>
		
			<line clip-path="url(#SVGID_6_)" fill="none" stroke="#000000" stroke-width="5" stroke-miterlimit="10" x1="351.413" y1="88.913" x2="387.685" y2="125.185"/>
	</g>
	<path fill="none" stroke="#000000" stroke-width="5" stroke-miterlimit="10" d="M384.602,94.585c0-1.105-0.895-2-2-2h-22.878
		c-15.695,0-30.372-4.322-42.938-11.816c-1.084-0.646-2.481-0.107-2.898,1.083c-3.042,8.686-4.711,18.016-4.711,27.74
		s1.669,19.055,4.711,27.741c0.417,1.191,1.815,1.73,2.898,1.083c12.567-7.494,27.244-11.816,42.938-11.816h22.878
		c1.105,0,2-0.895,2-2V94.585z"/>
</g>
<g>
	<g>
		<path fill="none" stroke="#000000" stroke-width="5" stroke-miterlimit="10" d="M600.322,205.356
			c-9.08,0-16.467-7.387-16.467-16.467c0-3.566-2.901-6.467-6.467-6.467h-4.119c-2.762,0-5-2.239-5-5s2.238-5,5-5h4.119
			c9.08,0,16.467,7.387,16.467,16.467c0,3.566,2.901,6.467,6.467,6.467c2.762,0,5,2.239,5,5S603.084,205.356,600.322,205.356z"/>
	</g>
	<path fill="none" stroke="#000000" stroke-width="5" stroke-miterlimit="10" d="M522.052,198.867
		c-18.834,18.834-6.444,51.523,20.175,52.423c0.422,0.014,0.845,0.021,1.27,0.021c0.425,0,0.849-0.007,1.27-0.021
		c26.62-0.899,39.009-33.589,20.175-52.423l-42.891-42.891c-18.834-18.834-6.444-51.523,20.175-52.423
		c0.422-0.014,0.845-0.021,1.27-0.021c0.425,0,0.849,0.007,1.27,0.021c26.62,0.899,39.009,33.589,20.175,52.423L522.052,198.867z"/>
	<g>
		<path fill="none" stroke="#000000" stroke-width="5" stroke-miterlimit="10" d="M543.498,260.829
			c-0.532,0-1.061-0.009-1.589-0.027c-16.009-0.541-29.629-10.196-35.548-25.197c-6.022-15.263-2.589-31.919,8.961-43.469
			l14.715-14.715l-14.715-14.715c-11.55-11.55-14.983-28.206-8.961-43.469c5.919-15.001,19.539-24.656,35.545-25.197
			c1.06-0.036,2.124-0.035,3.18,0c16.009,0.541,29.629,10.196,35.548,25.197c6.022,15.263,2.588,31.919-8.961,43.469l-14.715,14.715
			l14.715,14.715c11.549,11.55,14.983,28.206,8.961,43.469c-5.919,15.001-19.539,24.656-35.545,25.196
			C544.559,260.82,544.03,260.829,543.498,260.829z M543.498,190.882l-14.715,14.715c-7.295,7.295-7.218,16.676-4.714,23.022
			c3.139,7.954,10.048,12.873,18.481,13.158c0.626,0.021,1.269,0.021,1.9,0c8.431-0.285,15.34-5.204,18.478-13.158
			c2.504-6.346,2.581-15.727-4.714-23.022L543.498,190.882z M543.498,113.05c-0.318,0-0.636,0.005-0.951,0.016
			c-8.431,0.285-15.34,5.204-18.479,13.158c-2.504,6.346-2.581,15.727,4.714,23.022l14.715,14.715l14.715-14.715
			c7.294-7.295,7.218-16.676,4.714-23.022c-3.138-7.954-10.046-12.873-18.48-13.158C544.134,113.055,543.816,113.05,543.498,113.05z
			"/>
	</g>
	<g>
		<g>
			<path fill="#FFFFFF" stroke="#000000" stroke-width="5" stroke-miterlimit="10" d="M572.48,172.421h-57.965c-2.761,0-5-2.239-5-5
				v0c0-2.761,2.239-5,5-5h57.965c2.761,0,5,2.239,5,5v0C577.48,170.183,575.242,172.421,572.48,172.421z"/>
		</g>
		<g>
			<path fill="#FFFFFF" stroke="#000000" stroke-width="5" stroke-miterlimit="10" d="M572.48,182.421h-57.965c-2.761,0-5-2.239-5-5
				v0c0-2.761,2.239-5,5-5h57.965c2.761,0,5,2.239,5,5v0C577.48,180.183,575.242,182.421,572.48,182.421z"/>
		</g>
		<g>
			<path fill="#FFFFFF" stroke="#000000" stroke-width="5" stroke-miterlimit="10" d="M572.48,192.421h-57.965c-2.761,0-5-2.239-5-5
				v0c0-2.761,2.239-5,5-5h57.965c2.761,0,5,2.239,5,5v0C577.48,190.183,575.242,192.421,572.48,192.421z"/>
		</g>
	</g>
</g>
<g>
	<line fill="none" stroke="#000000" stroke-width="5" stroke-miterlimit="10" x1="108.529" y1="514.024" x2="97.837" y2="520.196"/>
	
		<line fill="none" stroke="#000000" stroke-width="5" stroke-miterlimit="10" x1="198.717" y1="461.953" x2="114.294" y2="510.695"/>
	<line fill="none" stroke="#000000" stroke-width="5" stroke-miterlimit="10" x1="194.906" y1="453.518" x2="94.484" y2="511.496"/>
	<path fill="none" stroke="#000000" stroke-width="5" stroke-miterlimit="10" d="M191.965,448.079l11.098,19.222
		c0.552,0.957,0.225,2.18-0.732,2.732l-97.572,56.333c-0.957,0.552-2.18,0.225-2.732-0.732l-11.098-19.222
		c-0.552-0.957-0.225-2.18,0.732-2.732l97.572-56.333C190.189,446.795,191.412,447.123,191.965,448.079z"/>
	<path fill="#FFFFFF" stroke="#000000" stroke-width="5" stroke-miterlimit="10" d="M102.026,448.079l-11.098,19.222
		c-0.552,0.957-0.225,2.18,0.732,2.732l97.572,56.333c0.957,0.552,2.18,0.225,2.732-0.732l11.098-19.222
		c0.552-0.957,0.225-2.18-0.732-2.732l-97.572-56.333C103.802,446.795,102.579,447.123,102.026,448.079z"/>
	<path fill="none" stroke="#000000" stroke-width="5" stroke-miterlimit="10" d="M182.428,418.154
		c0,19.292-15.523,34.958-34.76,35.19c-20.92,0.252-37.014-18.113-35.488-38.979c2.121-28.998,27.925-50.263,33.848-54.782
		c0.717-0.547,1.704-0.541,2.421,0.007C154.646,364.318,182.428,387.245,182.428,418.154z"/>
	<path fill="none" stroke="#000000" stroke-width="5" stroke-miterlimit="10" d="M163.478,429.014
		c0,9.091-7.468,16.437-16.604,16.239c-9.724-0.211-16.781-9.137-15.743-18.808c1.293-12.055,11.31-21.078,14.862-23.926
		c0.728-0.584,1.759-0.584,2.487,0C152.278,405.567,163.478,415.681,163.478,429.014z"/>
	
		<line fill="none" stroke="#000000" stroke-width="5" stroke-miterlimit="10" x1="144.862" y1="490.814" x2="195.248" y2="519.905"/>
	<line fill="none" stroke="#000000" stroke-width="5" stroke-miterlimit="10" x1="94.484" y1="461.728" x2="139.377" y2="487.648"/>
	<line fill="none" stroke="#000000" stroke-width="5" stroke-miterlimit="10" x1="180.67" y1="500.941" x2="200.248" y2="512.244"/>
	<line fill="none" stroke="#000000" stroke-width="5" stroke-miterlimit="10" x1="99.484" y1="454.068" x2="173.197" y2="496.627"/>
	<circle fill="#FFFFFF" cx="120.923" cy="471.44" r="9.667"/>
	<circle fill="#FFFFFF" stroke="#000000" stroke-width="5" stroke-miterlimit="10" cx="120.923" cy="471.44" r="5.25"/>
</g>
<g>
	<path fill="none" stroke="#000000" stroke-width="5" stroke-miterlimit="10" d="M417.885,473.15v-15.372
		c0-34.551-28.009-62.56-62.56-62.56s-62.56,28.009-62.56,62.56v15.372"/>
	<g>
		<defs>
			<path id="SVGID_7_" d="M417.885,473.15v-15.372c0-34.551-28.009-62.56-62.56-62.56s-62.56,28.009-62.56,62.56v15.372H417.885z"/>
		</defs>
		<clipPath id="SVGID_8_">
			<use xlink:href="#SVGID_7_"  overflow="visible"/>
		</clipPath>
		<g clip-path="url(#SVGID_8_)">
			<path fill="none" stroke="#000000" stroke-width="5" stroke-miterlimit="10" d="M451.772,473.15v-16.922
				c0-38.034-30.833-68.867-68.867-68.867s-68.867,30.833-68.867,68.867v16.922"/>
			<path fill="none" stroke="#000000" stroke-width="5" stroke-miterlimit="10" d="M470.554,473.15v-16.922
				c0-38.034-30.833-68.867-68.867-68.867s-68.867,30.833-68.867,68.867v16.922"/>
			<path fill="none" stroke="#000000" stroke-width="5" stroke-miterlimit="10" d="M397.514,473.15v-16.922
				c0-38.034-30.833-68.867-68.867-68.867s-68.867,30.833-68.867,68.867v16.922"/>
			<path fill="none" stroke="#000000" stroke-width="5" stroke-miterlimit="10" d="M377.829,473.15v-16.922
				c0-38.034-30.833-68.867-68.867-68.867s-68.867,30.833-68.867,68.867v16.922"/>
		</g>
	</g>
	<path fill="none" stroke="#000000" stroke-width="5" stroke-miterlimit="10" d="M424.93,508.714H285.719c-1.105,0-2-0.895-2-2
		V475.15c0-1.105,0.895-2,2-2H424.93c1.105,0,2,0.895,2,2v31.565C426.93,507.819,426.035,508.714,424.93,508.714z"/>
	<g>
		
			<line fill="none" stroke="#000000" stroke-width="5" stroke-miterlimit="10" x1="292.764" y1="473.15" x2="292.764" y2="508.714"/>
		
			<line fill="none" stroke="#000000" stroke-width="5" stroke-miterlimit="10" x1="304.139" y1="473.15" x2="304.139" y2="508.714"/>
		
			<line fill="none" stroke="#000000" stroke-width="5" stroke-miterlimit="10" x1="315.514" y1="473.15" x2="315.514" y2="508.714"/>
		
			<line fill="none" stroke="#000000" stroke-width="5" stroke-miterlimit="10" x1="326.888" y1="473.15" x2="326.888" y2="508.714"/>
		
			<line fill="none" stroke="#000000" stroke-width="5" stroke-miterlimit="10" x1="338.263" y1="473.15" x2="338.263" y2="508.714"/>
		
			<line fill="none" stroke="#000000" stroke-width="5" stroke-miterlimit="10" x1="349.637" y1="473.15" x2="349.637" y2="508.714"/>
		
			<line fill="none" stroke="#000000" stroke-width="5" stroke-miterlimit="10" x1="361.012" y1="473.15" x2="361.012" y2="508.714"/>
		
			<line fill="none" stroke="#000000" stroke-width="5" stroke-miterlimit="10" x1="372.387" y1="473.15" x2="372.387" y2="508.714"/>
		
			<line fill="none" stroke="#000000" stroke-width="5" stroke-miterlimit="10" x1="383.761" y1="473.15" x2="383.761" y2="508.714"/>
		
			<line fill="none" stroke="#000000" stroke-width="5" stroke-miterlimit="10" x1="395.136" y1="473.15" x2="395.136" y2="508.714"/>
		<line fill="none" stroke="#000000" stroke-width="5" stroke-miterlimit="10" x1="406.51" y1="473.15" x2="406.51" y2="508.714"/>
		
			<line fill="none" stroke="#000000" stroke-width="5" stroke-miterlimit="10" x1="417.885" y1="473.15" x2="417.885" y2="508.714"/>
	</g>
	<circle fill="#FFFFFF" stroke="#000000" stroke-width="5" stroke-miterlimit="10" cx="355.325" cy="387.361" r="18.184"/>
	<line fill="none" stroke="#000000" stroke-width="5" stroke-miterlimit="10" x1="355.325" y1="405.545" x2="355.325" y2="473.15"/>
</g>
<g>
	<path fill="none" stroke="#000000" stroke-width="5" stroke-miterlimit="10" d="M599.105,506.879h-97.333c-1.105,0-2-0.895-2-2
		v-97.333c0-1.105,0.895-2,2-2h97.333c1.105,0,2,0.895,2,2v97.333C601.105,505.983,600.21,506.879,599.105,506.879z"/>
	<path fill="#FFFFFF" stroke="#000000" stroke-width="5" stroke-miterlimit="10" d="M603.65,399.766H497.227c-1.105,0-2,0.895-2,2
		v5.393c0,1.105,0.895,2,2,2H603.65c1.105,0,2-0.895,2-2v-5.393C605.65,400.662,604.754,399.766,603.65,399.766z"/>
	<g>
		
			<line fill="none" stroke="#000000" stroke-width="5" stroke-miterlimit="10" x1="531.488" y1="476.209" x2="536.764" y2="481.485"/>
		
			<line fill="none" stroke="#000000" stroke-width="5" stroke-miterlimit="10" x1="532.571" y1="445.886" x2="537.847" y2="451.162"/>
		
			<line fill="none" stroke="#000000" stroke-width="5" stroke-miterlimit="10" x1="540.464" y1="435.695" x2="545.74" y2="440.971"/>
		
			<line fill="none" stroke="#000000" stroke-width="5" stroke-miterlimit="10" x1="585.587" y1="436.778" x2="590.863" y2="442.054"/>
		
			<line fill="none" stroke="#000000" stroke-width="5" stroke-miterlimit="10" x1="542.714" y1="487.042" x2="547.99" y2="492.318"/>
		
			<line fill="none" stroke="#000000" stroke-width="5" stroke-miterlimit="10" x1="511.585" y1="436.056" x2="516.861" y2="441.332"/>
		
			<line fill="none" stroke="#000000" stroke-width="5" stroke-miterlimit="10" x1="560.217" y1="417.045" x2="565.493" y2="422.321"/>
		
			<line fill="none" stroke="#000000" stroke-width="5" stroke-miterlimit="10" x1="511.038" y1="492.299" x2="516.314" y2="497.575"/>
		
			<line fill="none" stroke="#000000" stroke-width="5" stroke-miterlimit="10" x1="580.202" y1="451.342" x2="585.479" y2="456.618"/>
		
			<line fill="none" stroke="#000000" stroke-width="5" stroke-miterlimit="10" x1="561.681" y1="478.766" x2="566.957" y2="484.042"/>
		
			<line fill="none" stroke="#000000" stroke-width="5" stroke-miterlimit="10" x1="557.059" y1="450.107" x2="551.783" y2="455.383"/>
		
			<line fill="none" stroke="#000000" stroke-width="5" stroke-miterlimit="10" x1="515.546" y1="450.468" x2="510.27" y2="455.744"/>
		
			<line fill="none" stroke="#000000" stroke-width="5" stroke-miterlimit="10" x1="561.03" y1="434.223" x2="555.754" y2="439.499"/>
		
			<line fill="none" stroke="#000000" stroke-width="5" stroke-miterlimit="10" x1="514.463" y1="467.434" x2="509.187" y2="472.71"/>
		
			<line fill="none" stroke="#000000" stroke-width="5" stroke-miterlimit="10" x1="580.234" y1="474.016" x2="574.957" y2="479.292"/>
		
			<line fill="none" stroke="#000000" stroke-width="5" stroke-miterlimit="10" x1="577.814" y1="489.745" x2="572.538" y2="495.021"/>
		<line fill="none" stroke="#000000" stroke-width="5" stroke-miterlimit="10" x1="539.93" y1="460.214" x2="534.654" y2="465.49"/>
		
			<line fill="none" stroke="#000000" stroke-width="5" stroke-miterlimit="10" x1="591.19" y1="463.463" x2="585.914" y2="468.739"/>
		
			<line fill="none" stroke="#000000" stroke-width="5" stroke-miterlimit="10" x1="537.913" y1="495.344" x2="532.637" y2="500.62"/>
		
			<line fill="none" stroke="#000000" stroke-width="5" stroke-miterlimit="10" x1="522.075" y1="478.527" x2="516.799" y2="483.803"/>
		
			<line fill="none" stroke="#000000" stroke-width="5" stroke-miterlimit="10" x1="528.283" y1="418.739" x2="523.007" y2="424.015"/>
		
			<line fill="none" stroke="#000000" stroke-width="5" stroke-miterlimit="10" x1="550.794" y1="470.444" x2="545.517" y2="475.721"/>
		
			<line fill="none" stroke="#000000" stroke-width="5" stroke-miterlimit="10" x1="513.251" y1="415.936" x2="507.975" y2="421.212"/>
		
			<line fill="none" stroke="#000000" stroke-width="5" stroke-miterlimit="10" x1="588.366" y1="421.692" x2="588.366" y2="414.231"/>
		
			<line fill="none" stroke="#000000" stroke-width="5" stroke-miterlimit="10" x1="526.638" y1="437.215" x2="526.638" y2="429.753"/>
		
			<line fill="none" stroke="#000000" stroke-width="5" stroke-miterlimit="10" x1="571.039" y1="452.015" x2="571.039" y2="444.553"/>
		
			<line fill="none" stroke="#000000" stroke-width="5" stroke-miterlimit="10" x1="588.302" y1="498.01" x2="588.302" y2="490.548"/>
		
			<line fill="none" stroke="#000000" stroke-width="5" stroke-miterlimit="10" x1="522.417" y1="459.529" x2="522.417" y2="452.068"/>
		
			<line fill="none" stroke="#000000" stroke-width="5" stroke-miterlimit="10" x1="572.22" y1="434.456" x2="579.682" y2="434.456"/>
		
			<line fill="none" stroke="#000000" stroke-width="5" stroke-miterlimit="10" x1="539.371" y1="420.016" x2="546.833" y2="420.016"/>
		
			<line fill="none" stroke="#000000" stroke-width="5" stroke-miterlimit="10" x1="557.059" y1="494.883" x2="564.521" y2="494.883"/>
		
			<line fill="none" stroke="#000000" stroke-width="5" stroke-miterlimit="10" x1="559.947" y1="465.282" x2="567.409" y2="465.282"/>
		
			<line fill="none" stroke="#000000" stroke-width="5" stroke-miterlimit="10" x1="524.457" y1="488.673" x2="531.919" y2="488.673"/>
	</g>
	<path fill="none" stroke="#000000" stroke-width="5" stroke-miterlimit="10" d="M601.105,420.857h19.419
		c6.383,0,11.557,5.174,11.557,11.557v41.961c0,6.383-5.174,11.557-11.557,11.557h-19.419"/>
	<path fill="none" stroke="#000000" stroke-width="5" stroke-miterlimit="10" d="M601.105,430.857h16.774
		c2.321,0,4.202,1.881,4.202,4.202v36.671c0,2.321-1.881,4.202-4.202,4.202h-16.774"/>
</g>
<g>
	<path fill="#FFFFFF" stroke="#000000" stroke-width="5" stroke-miterlimit="10" d="M700.405,220.954v17.917c0,1.105,0.895,2,2,2
		h9.553c0-4.538,3.679-8.217,8.217-8.217s8.217,3.679,8.217,8.217h9.387c0-4.538,3.679-8.217,8.217-8.217s8.217,3.679,8.217,8.217
		h9.387c0-4.538,3.679-8.217,8.217-8.217s8.217,3.679,8.217,8.217h9.387c0-4.538,3.679-8.217,8.217-8.217s8.217,3.679,8.217,8.217
		h15.489c1.105,0,2-0.895,2-2v-17.917H700.405z"/>
	<path fill="#FFFFFF" stroke="#000000" stroke-width="5" stroke-miterlimit="10" d="M759.873,111.185h-52.468c-1.105,0-2,0.895-2,2
		v28.494h56.468v-28.494C761.873,112.08,760.977,111.185,759.873,111.185z"/>
	
		<line fill="none" stroke="#000000" stroke-width="5" stroke-miterlimit="10" x1="713.405" y1="111.185" x2="713.405" y2="141.679"/>
	
		<line fill="none" stroke="#000000" stroke-width="5" stroke-miterlimit="10" x1="723.522" y1="111.185" x2="723.522" y2="141.679"/>
	
		<line fill="none" stroke="#000000" stroke-width="5" stroke-miterlimit="10" x1="733.639" y1="111.185" x2="733.639" y2="141.679"/>
	
		<line fill="none" stroke="#000000" stroke-width="5" stroke-miterlimit="10" x1="743.756" y1="111.185" x2="743.756" y2="141.679"/>
	
		<line fill="none" stroke="#000000" stroke-width="5" stroke-miterlimit="10" x1="753.873" y1="111.185" x2="753.873" y2="141.679"/>
	<g>
		<path fill="#FFFFFF" stroke="#000000" stroke-width="5" stroke-miterlimit="10" d="M761.873,172.283v-38.428
			c0-4.226-4.87-6.593-8.193-3.982l-6.963,5.471c-5.223,4.104-11.672,6.335-18.315,6.335h-22.997v36.828
			c0,3.905-0.853,7.762-2.5,11.303l0,0c-1.647,3.541-2.5,7.398-2.5,11.303v19.842h122.935v-12.75
			c0-13.989-11.34-25.329-25.329-25.329h-25.546C766.615,182.876,761.873,178.133,761.873,172.283z"/>
		<path fill="none" stroke="#000000" stroke-width="5" stroke-miterlimit="10" d="M761.873,141.679v30.604
			c0,5.85,4.743,10.593,10.593,10.593h25.546c13.989,0,25.329,11.34,25.329,25.329v12.75H700.405v-19.842
			c0-3.905,0.853-7.762,2.5-11.303l0,0c1.647-3.541,2.5-7.398,2.5-11.303v-36.828h45.124h2.343c1.105,0,2,0.895,2,2v28.604
			c0,5.85,4.743,10.593,10.593,10.593h25.546"/>
		<g>
			
				<line fill="none" stroke="#000000" stroke-width="5" stroke-miterlimit="10" x1="773.466" y1="182.876" x2="773.466" y2="195.736"/>
			
				<line fill="none" stroke="#000000" stroke-width="5" stroke-miterlimit="10" x1="786.945" y1="182.876" x2="786.945" y2="195.736"/>
			
				<line fill="none" stroke="#000000" stroke-width="5" stroke-miterlimit="10" x1="761.873" y1="159.205" x2="744.228" y2="159.205"/>
			
				<line fill="none" stroke="#000000" stroke-width="5" stroke-miterlimit="10" x1="761.873" y1="172.685" x2="744.228" y2="172.685"/>
			
				<line fill="none" stroke="#000000" stroke-width="5" stroke-miterlimit="10" x1="762.819" y1="176.721" x2="750.145" y2="184.039"/>
			
				<line fill="none" stroke="#000000" stroke-width="5" stroke-miterlimit="10" x1="766.949" y1="181.317" x2="760.518" y2="192.454"/>
		</g>
	</g>
	<circle fill="#FFFFFF" stroke="#000000" stroke-width="5" stroke-miterlimit="10" cx="744.228" cy="159.205" r="3.5"/>
	<circle fill="#FFFFFF" stroke="#000000" stroke-width="5" stroke-miterlimit="10" cx="744.218" cy="172.674" r="3.5"/>
	<circle fill="#FFFFFF" stroke="#000000" stroke-width="5" stroke-miterlimit="10" cx="750.529" cy="184.521" r="3.5"/>
	<circle fill="#FFFFFF" stroke="#000000" stroke-width="5" stroke-miterlimit="10" cx="760.518" cy="192.72" r="3.5"/>
	<circle fill="#FFFFFF" stroke="#000000" stroke-width="5" stroke-miterlimit="10" cx="773.466" cy="195.736" r="3.5"/>
	<circle fill="#FFFFFF" stroke="#000000" stroke-width="5" stroke-miterlimit="10" cx="786.945" cy="195.736" r="3.5"/>
</g>
<g>
	
		<line fill="none" stroke="#000000" stroke-width="5" stroke-linejoin="bevel" stroke-miterlimit="10" x1="691.752" y1="508.919" x2="784.989" y2="367.746"/>
	
		<line fill="none" stroke="#000000" stroke-width="5" stroke-linejoin="bevel" stroke-miterlimit="10" x1="758.977" y1="367.746" x2="852.214" y2="508.919"/>
	<polyline fill="none" stroke="#000000" stroke-width="5" stroke-miterlimit="10" points="771.983,432.364 725.659,465.282 
		735.428,508.919 	"/>
	<path fill="none" stroke="#000000" stroke-width="5" stroke-miterlimit="10" d="M691.752,508.919"/>
	<path fill="none" stroke="#000000" stroke-width="5" stroke-miterlimit="10" d="M680.114,489.18l11.058,18.755
		c0.36,0.61,1.015,0.984,1.723,0.984h41.272c0.771,0,1.473-0.443,1.805-1.138l36.012-75.417"/>
	<path fill="none" stroke="#000000" stroke-width="5" stroke-miterlimit="10" d="M771.983,389.804v117.115c0,1.105,0.895,2,2,2
		h77.088c0.708,0,1.363-0.374,1.723-0.984l11.058-18.755"/>
</g>
<g>
	<path fill="none" stroke="#000000" stroke-width="5" stroke-miterlimit="10" d="M1008.45,242.416h-78.17
		c-7.405,0-13.409-6.003-13.409-13.409v-89.579c0-1.105,0.895-2,2-2h100.987c1.105,0,2,0.895,2,2v89.579
		C1021.859,236.413,1015.855,242.416,1008.45,242.416z"/>
	<path fill="none" stroke="#000000" stroke-width="5" stroke-miterlimit="10" d="M1040.146,193.217h-16.287c-1.105,0-2-0.895-2-2
		v-41.082c0-1.105,0.895-2,2-2h16.287c2.761,0,5,2.239,5,5v35.082C1045.146,190.979,1042.907,193.217,1040.146,193.217z"/>
	<path fill="none" stroke="#000000" stroke-width="5" stroke-miterlimit="10" d="M1024.253,137.429H914.477
		c-8.503,0-15.396-6.893-15.396-15.396v-10.705c0-8.503,6.893-15.396,15.396-15.396h109.776c8.503,0,15.396,6.893,15.396,15.396
		v10.705C1039.649,130.536,1032.756,137.429,1024.253,137.429z"/>
	<path fill="none" stroke="#000000" stroke-width="5" stroke-miterlimit="10" d="M1006.859,229.465h-74.987c-1.105,0-2-0.895-2-2
		v-23.643c0-1.105,0.895-2,2-2h74.987c1.105,0,2,0.895,2,2v23.643C1008.859,228.57,1007.963,229.465,1006.859,229.465z"/>
	
		<line fill="none" stroke="#000000" stroke-width="5" stroke-miterlimit="10" x1="1045.146" y1="159.907" x2="1033.502" y2="159.907"/>
	<path fill="none" stroke="#000000" stroke-width="5" stroke-miterlimit="10" d="M914.871,193.217h-16.287c-2.761,0-5-2.239-5-5
		v-35.082c0-2.761,2.239-5,5-5h16.287c1.105,0,2,0.895,2,2v41.082C916.871,192.322,915.976,193.217,914.871,193.217z"/>
	
		<line fill="none" stroke="#000000" stroke-width="5" stroke-miterlimit="10" x1="905.227" y1="159.907" x2="893.584" y2="159.907"/>
	<path fill="#FFFFFF" stroke="#000000" stroke-width="5" stroke-miterlimit="10" d="M1019.049,174.52h-99.368c-4.418,0-8-3.582-8-8
		v-27.091c0-1.105,0.895-2,2-2h111.368c1.105,0,2,0.895,2,2v27.091C1027.049,170.938,1023.467,174.52,1019.049,174.52z"/>
	<path fill="#FFFFFF" stroke="#000000" stroke-width="5" stroke-miterlimit="10" d="M943.542,183.062h-7.671c-1.105,0-2-0.895-2-2
		v-85.13h11.671v85.13C945.542,182.167,944.647,183.062,943.542,183.062z"/>
	<path fill="#FFFFFF" stroke="#000000" stroke-width="5" stroke-miterlimit="10" d="M1002.859,183.062h-7.671c-1.105,0-2-0.895-2-2
		v-85.13h11.671v85.13C1004.859,182.167,1003.963,183.062,1002.859,183.062z"/>
	<path fill="none" stroke="#000000" stroke-width="5" stroke-miterlimit="10" d="M967.951,162.723l-5.335-5.335
		c-0.781-0.781-0.781-2.047,0-2.828l5.335-5.335c0.781-0.781,2.047-0.781,2.828,0l5.334,5.335c0.781,0.781,0.781,2.047,0,2.828
		l-5.334,5.335C969.998,163.504,968.732,163.504,967.951,162.723z"/>
	<path fill="#FFFFFF" stroke="#000000" stroke-width="5" stroke-miterlimit="10" d="M947.104,190.562h-14.795c-1.105,0-2-0.895-2-2
		v-8.75c0-1.105,0.895-2,2-2h14.795c1.105,0,2,0.895,2,2v8.75C949.104,189.667,948.209,190.562,947.104,190.562z"/>
	<path fill="#FFFFFF" stroke="#000000" stroke-width="5" stroke-miterlimit="10" d="M1006.42,190.562h-14.795c-1.105,0-2-0.895-2-2
		v-8.75c0-1.105,0.895-2,2-2h14.795c1.105,0,2,0.895,2,2v8.75C1008.42,189.667,1007.525,190.562,1006.42,190.562z"/>
	<path fill="#FFFFFF" stroke="#000000" stroke-width="5" stroke-miterlimit="10" d="M947.104,160.15h-14.795c-1.105,0-2-0.895-2-2
		v-4.352c0-1.105,0.895-2,2-2h14.795c1.105,0,2,0.895,2,2v4.352C949.104,159.255,948.209,160.15,947.104,160.15z"/>
	<path fill="#FFFFFF" stroke="#000000" stroke-width="5" stroke-miterlimit="10" d="M1006.42,160.15h-14.795c-1.105,0-2-0.895-2-2
		v-4.352c0-1.105,0.895-2,2-2h14.795c1.105,0,2,0.895,2,2v4.352C1008.42,159.255,1007.525,160.15,1006.42,160.15z"/>
	
		<line fill="none" stroke="#000000" stroke-width="5" stroke-miterlimit="10" x1="929.871" y1="211.132" x2="1008.42" y2="211.132"/>
</g>
<g>
	<path fill="none" stroke="#000000" stroke-width="5" stroke-miterlimit="10" d="M1024.268,394.123h-87.912c-2.209,0-4-1.791-4-4
		v-32.326c0-2.209,1.791-4,4-4h87.912c2.209,0,4,1.791,4,4v32.326C1028.268,392.332,1026.477,394.123,1024.268,394.123z"/>
	<path fill="none" stroke="#000000" stroke-width="5" stroke-miterlimit="10" d="M1024.268,434.456h-87.912c-2.209,0-4-1.791-4-4
		V398.13c0-2.209,1.791-4,4-4h87.912c2.209,0,4,1.791,4,4v32.326C1028.268,432.665,1026.477,434.456,1024.268,434.456z"/>
	<path fill="none" stroke="#000000" stroke-width="5" stroke-miterlimit="10" d="M1024.268,474.789h-87.912c-2.209,0-4-1.791-4-4
		v-32.326c0-2.209,1.791-4,4-4h87.912c2.209,0,4,1.791,4,4v32.326C1028.268,472.998,1026.477,474.789,1024.268,474.789z"/>
	<path fill="none" stroke="#000000" stroke-width="5" stroke-miterlimit="10" d="M1024.268,515.115h-87.912c-2.209,0-4-1.791-4-4
		v-32.326c0-2.209,1.791-4,4-4h87.912c2.209,0,4,1.791,4,4v32.326C1028.268,513.324,1026.477,515.115,1024.268,515.115z"/>
	<path fill="#FFFFFF" stroke="#000000" stroke-width="5" stroke-miterlimit="10" d="M1025.577,424.373h-77.173c-1.105,0-2-0.895-2-2
		v-66.394c0-0.856,1.005-1.316,1.653-0.757l78.173,67.394C1026.932,423.221,1026.504,424.373,1025.577,424.373z"/>
	<path fill="#FFFFFF" stroke="#000000" stroke-width="5" stroke-miterlimit="10" d="M949.095,353.797h77.173c1.104,0,2,0.895,2,2
		v66.394c0,0.856-1.005,1.316-1.653,0.757l-78.173-67.394C947.74,354.949,948.168,353.797,949.095,353.797z"/>
	<g>
		<defs>
			<path id="SVGID_9_" d="M951.786,353.797h74.482c1.104,0,2,0.895,2,2v64.212c0,1.711-2.01,2.632-3.306,1.515l-74.482-64.212
				C949.076,356.101,949.932,353.797,951.786,353.797z"/>
		</defs>
		<clipPath id="SVGID_10_">
			<use xlink:href="#SVGID_9_"  overflow="visible"/>
		</clipPath>
		<g clip-path="url(#SVGID_10_)">
			
				<line fill="none" stroke="#000000" stroke-width="5" stroke-miterlimit="10" x1="924.782" y1="321.251" x2="924.782" y2="466.001"/>
			
				<line fill="none" stroke="#000000" stroke-width="5" stroke-miterlimit="10" x1="939.782" y1="321.251" x2="939.782" y2="466.001"/>
			
				<line fill="none" stroke="#000000" stroke-width="5" stroke-miterlimit="10" x1="969.782" y1="321.251" x2="969.782" y2="466.001"/>
			
				<line fill="none" stroke="#000000" stroke-width="5" stroke-miterlimit="10" x1="984.782" y1="321.251" x2="984.782" y2="466.001"/>
			
				<line fill="none" stroke="#000000" stroke-width="5" stroke-miterlimit="10" x1="1014.782" y1="321.251" x2="1014.782" y2="466.001"/>
			
				<line fill="none" stroke="#000000" stroke-width="5" stroke-miterlimit="10" x1="1029.782" y1="321.251" x2="1029.782" y2="466.001"/>
			
				<line fill="none" stroke="#000000" stroke-width="5" stroke-miterlimit="10" x1="1059.782" y1="321.251" x2="1059.782" y2="466.001"/>
			
				<line fill="none" stroke="#000000" stroke-width="5" stroke-miterlimit="10" x1="1074.782" y1="321.251" x2="1074.782" y2="466.001"/>
			
				<line fill="none" stroke="#000000" stroke-width="5" stroke-miterlimit="10" x1="1072.157" y1="318.626" x2="927.407" y2="318.626"/>
			
				<line fill="none" stroke="#000000" stroke-width="5" stroke-miterlimit="10" x1="1072.157" y1="333.626" x2="927.407" y2="333.626"/>
			
				<line fill="none" stroke="#000000" stroke-width="5" stroke-miterlimit="10" x1="1072.157" y1="363.626" x2="927.407" y2="363.626"/>
			
				<line fill="none" stroke="#000000" stroke-width="5" stroke-miterlimit="10" x1="1072.157" y1="378.626" x2="927.407" y2="378.626"/>
			
				<line fill="none" stroke="#000000" stroke-width="5" stroke-miterlimit="10" x1="1072.157" y1="408.626" x2="927.407" y2="408.626"/>
			
				<line fill="none" stroke="#000000" stroke-width="5" stroke-miterlimit="10" x1="1072.157" y1="423.626" x2="927.407" y2="423.626"/>
			
				<line fill="none" stroke="#000000" stroke-width="5" stroke-miterlimit="10" x1="1072.157" y1="453.626" x2="927.407" y2="453.626"/>
			
				<line fill="none" stroke="#000000" stroke-width="5" stroke-miterlimit="10" x1="1072.157" y1="468.626" x2="927.407" y2="468.626"/>
		</g>
	</g>
	<g>
		<defs>
			<path id="SVGID_11_" d="M1025.577,424.373h-77.173c-1.105,0-2-0.895-2-2v-66.394c0-0.856,1.005-1.316,1.653-0.757l78.173,67.394
				C1026.932,423.221,1026.504,424.373,1025.577,424.373z"/>
		</defs>
		<clipPath id="SVGID_12_">
			<use xlink:href="#SVGID_11_"  overflow="visible"/>
		</clipPath>
		<g clip-path="url(#SVGID_12_)">
			
				<line fill="none" stroke="#000000" stroke-width="5" stroke-miterlimit="10" x1="896.701" y1="312.435" x2="896.701" y2="457.185"/>
			
				<line fill="none" stroke="#000000" stroke-width="5" stroke-miterlimit="10" x1="911.701" y1="312.435" x2="911.701" y2="457.185"/>
			
				<line fill="none" stroke="#000000" stroke-width="5" stroke-miterlimit="10" x1="941.701" y1="312.435" x2="941.701" y2="457.185"/>
			
				<line fill="none" stroke="#000000" stroke-width="5" stroke-miterlimit="10" x1="956.701" y1="312.435" x2="956.701" y2="457.185"/>
			
				<line fill="none" stroke="#000000" stroke-width="5" stroke-miterlimit="10" x1="986.701" y1="312.435" x2="986.701" y2="457.185"/>
			
				<line fill="none" stroke="#000000" stroke-width="5" stroke-miterlimit="10" x1="1001.701" y1="312.435" x2="1001.701" y2="457.185"/>
			
				<line fill="none" stroke="#000000" stroke-width="5" stroke-miterlimit="10" x1="1031.701" y1="312.435" x2="1031.701" y2="457.185"/>
			
				<line fill="none" stroke="#000000" stroke-width="5" stroke-miterlimit="10" x1="1046.701" y1="312.435" x2="1046.701" y2="457.185"/>
			
				<line fill="none" stroke="#000000" stroke-width="5" stroke-miterlimit="10" x1="1044.076" y1="309.81" x2="899.326" y2="309.81"/>
			
				<line fill="none" stroke="#000000" stroke-width="5" stroke-miterlimit="10" x1="1044.076" y1="324.81" x2="899.326" y2="324.81"/>
			
				<line fill="none" stroke="#000000" stroke-width="5" stroke-miterlimit="10" x1="1044.076" y1="354.81" x2="899.326" y2="354.81"/>
			
				<line fill="none" stroke="#000000" stroke-width="5" stroke-miterlimit="10" x1="1044.076" y1="369.81" x2="899.326" y2="369.81"/>
			
				<line fill="none" stroke="#000000" stroke-width="5" stroke-miterlimit="10" x1="1044.076" y1="399.81" x2="899.326" y2="399.81"/>
			
				<line fill="none" stroke="#000000" stroke-width="5" stroke-miterlimit="10" x1="1044.076" y1="414.81" x2="899.326" y2="414.81"/>
			
				<line fill="none" stroke="#000000" stroke-width="5" stroke-miterlimit="10" x1="1044.076" y1="444.81" x2="899.326" y2="444.81"/>
			
				<line fill="none" stroke="#000000" stroke-width="5" stroke-miterlimit="10" x1="1044.076" y1="459.81" x2="899.326" y2="459.81"/>
		</g>
	</g>
</g>
<g>
	<path fill="none" stroke="#000000" stroke-width="5" stroke-miterlimit="10" d="M1164.19,212.059v40.499c0,1.105,0.896,2,2,2
		h21.333c1.105,0,2-0.895,2-2v-40.499"/>
	<path fill="#FFFFFF" stroke="#000000" stroke-width="5" stroke-miterlimit="10" d="M1244.71,209.049l-27.455-20.532
		c-1.287-0.963-0.607-3.01,1.001-3.01h12.809c1.565,0,2.272-1.958,1.068-2.958l-24.855-20.638c-1.204-1-0.497-2.958,1.068-2.958
		h10.154c1.506,0,2.244-1.835,1.157-2.878l-21.67-20.798c-1.086-1.043-0.348-2.878,1.157-2.878h6.888
		c1.42,0,2.193-1.658,1.281-2.746l-17.666-21.061c-0.912-1.088-0.139-2.746,1.281-2.746h2.754c1.287,0,2.091-1.393,1.448-2.507
		l-16.823-29.139c-0.643-1.114-2.252-1.114-2.895,0l-16.823,29.139c-0.643,1.114,0.161,2.507,1.448,2.507h2.754
		c1.42,0,2.193,1.658,1.281,2.746l-17.666,21.061c-0.912,1.088-0.139,2.746,1.281,2.746h6.888c1.506,0,2.244,1.835,1.157,2.878
		l-21.67,20.798c-1.086,1.043-0.348,2.878,1.157,2.878h10.154c1.565,0,2.272,1.958,1.068,2.958l-24.855,20.638
		c-1.204,1-0.497,2.958,1.068,2.958h12.809c1.608,0,2.289,2.047,1.001,3.01l-27.455,20.532c-1.287,0.963-0.606,3.01,1.001,3.01
		h133.704C1245.316,212.059,1245.997,210.011,1244.71,209.049z"/>
	
		<line fill="#FFFFFF" stroke="#000000" stroke-width="5" stroke-miterlimit="10" x1="1171.944" y1="119.124" x2="1165.571" y2="126.721"/>
	
		<line fill="#FFFFFF" stroke="#000000" stroke-width="5" stroke-miterlimit="10" x1="1183.56" y1="99.228" x2="1177.522" y2="88.77"/>
	
		<line fill="#FFFFFF" stroke="#000000" stroke-width="5" stroke-miterlimit="10" x1="1202.263" y1="202.307" x2="1188.156" y2="191.756"/>
	
		<line fill="#FFFFFF" stroke="#000000" stroke-width="5" stroke-miterlimit="10" x1="1168.682" y1="169.189" x2="1156.46" y2="179.337"/>
	
		<line fill="#FFFFFF" stroke="#000000" stroke-width="5" stroke-miterlimit="10" x1="1165.446" y1="185.506" x2="1140.569" y2="204.11"/>
	
		<line fill="#FFFFFF" stroke="#000000" stroke-width="5" stroke-miterlimit="10" x1="1185.504" y1="125.315" x2="1175.579" y2="113.483"/>
	
		<line fill="#FFFFFF" stroke="#000000" stroke-width="5" stroke-miterlimit="10" x1="1181.255" y1="137.35" x2="1163.903" y2="154.003"/>
	
		<line fill="#FFFFFF" stroke="#000000" stroke-width="5" stroke-miterlimit="10" x1="1207.558" y1="185.506" x2="1175.579" y2="158.953"/>
	
		<line fill="none" stroke="#000000" stroke-width="5" stroke-miterlimit="10" x1="1172.19" y1="254.557" x2="1172.19" y2="212.059"/>
	<line fill="none" stroke="#000000" stroke-width="5" stroke-miterlimit="10" x1="1181.19" y1="254.557" x2="1181.19" y2="238.29"/>
	
		<line fill="none" stroke="#000000" stroke-width="5" stroke-miterlimit="10" x1="1181.19" y1="232.016" x2="1181.19" y2="212.059"/>
</g>
<g>
	
		<rect x="1177.733" y="443.274" fill="none" stroke="#000000" stroke-width="5" stroke-miterlimit="10" width="21.674" height="21.541"/>
	<path fill="#FFFFFF" stroke="#000000" stroke-width="5" stroke-miterlimit="10" d="M1187.898,458.168
		c-13.022,0.357-23.235,11.368-23.235,24.395v24.893c0,0.927,0.751,1.678,1.678,1.678h44.458c0.927,0,1.678-0.751,1.678-1.678
		v-25.39C1212.476,468.639,1201.408,457.797,1187.898,458.168z"/>
	<path fill="none" stroke="#000000" stroke-width="5" stroke-miterlimit="10" d="M1213.196,443.202h-49.109c-1.105,0-2-0.895-2-2
		v-51.43c0-1.105,0.895-2,2-2h49.109c1.105,0,2,0.895,2,2v51.43C1215.196,442.307,1214.301,443.202,1213.196,443.202z"/>
	<g>
		<path fill="none" stroke="#000000" stroke-width="5" stroke-miterlimit="10" d="M1177.876,420.615L1177.876,420.615
			c-2.934,0-5.313-2.379-5.313-5.313v-8.617c0-2.934,2.379-5.313,5.313-5.313l0,0c2.934,0,5.313,2.379,5.313,5.313v8.617
			C1183.189,418.236,1180.81,420.615,1177.876,420.615z"/>
		<path fill="none" stroke="#000000" stroke-width="5" stroke-miterlimit="10" d="M1199.406,420.615L1199.406,420.615
			c-2.934,0-5.313-2.379-5.313-5.313v-8.617c0-2.934,2.379-5.313,5.313-5.313h0c2.934,0,5.313,2.379,5.313,5.313v8.617
			C1204.719,418.236,1202.341,420.615,1199.406,420.615z"/>
	</g>
	<g>
		<path fill="#FFFFFF" stroke="#000000" stroke-width="5" stroke-miterlimit="10" d="M1183.426,405.692h-11.099
			c-1.105,0-2-0.895-2-2v-15.92h15.099v15.92C1185.426,404.797,1184.53,405.692,1183.426,405.692z"/>
		<path fill="#FFFFFF" stroke="#000000" stroke-width="5" stroke-miterlimit="10" d="M1204.956,405.692h-11.099
			c-1.104,0-2-0.895-2-2v-15.92h15.099v15.92C1206.956,404.797,1206.061,405.692,1204.956,405.692z"/>
	</g>
	<circle fill="#FFFFFF" stroke="#000000" stroke-width="5" stroke-miterlimit="10" cx="1188.641" cy="478.701" r="8.493"/>
	
		<line fill="none" stroke="#000000" stroke-width="5" stroke-miterlimit="10" x1="1188.641" y1="474.167" x2="1188.641" y2="483.235"/>
	<path fill="#FFFFFF" stroke="#000000" stroke-width="5" stroke-miterlimit="10" d="M1219.658,374.809h-62.033
		c-0.371,0-0.732,0.123-1.026,0.35l-12.434,9.608c-1.266,0.978-0.574,3.005,1.026,3.005h86.902c1.6,0,2.292-2.027,1.026-3.005
		l-12.434-9.608C1220.39,374.933,1220.029,374.809,1219.658,374.809z"/>
	<path fill="#FFFFFF" stroke="#000000" stroke-width="5" stroke-miterlimit="10" d="M1214.155,509.133h-51.028
		c-0.305,0-0.602,0.123-0.844,0.35l-10.228,9.608c-1.042,0.978-0.472,3.005,0.844,3.005h71.485c1.316,0,1.885-2.027,0.844-3.005
		l-10.228-9.608C1214.758,509.256,1214.461,509.133,1214.155,509.133z"/>
	<path fill="#FFFFFF" stroke="#000000" stroke-width="5" stroke-miterlimit="10" d="M1206.073,356.355h-34.863
		c-0.621,0-1.191,0.343-1.482,0.891l-8.013,15.099c-0.593,1.117,0.217,2.464,1.482,2.464h50.889c1.265,0,2.075-1.347,1.482-2.464
		l-8.013-15.099C1207.264,356.698,1206.694,356.355,1206.073,356.355z"/>
	<path fill="none" stroke="#000000" stroke-width="5" stroke-miterlimit="10" d="M1203.181,356.355V336.19
		c0-8.03-6.51-14.54-14.54-14.54c-8.03,0-14.54,6.51-14.54,14.54v20.165"/>
</g>
</svg>
